<?xml version="1.0" encoding="UTF-8" standalone="no"?>
<!DOCTYPE svg PUBLIC "-//W3C//DTD SVG 1.1//EN"
 "http://www.w3.org/Graphics/SVG/1.1/DTD/svg11.dtd">
<!-- Generated by graphviz version 2.36.0 (20140111.2315)
 -->
<!-- Title: controllers_diagram Pages: 1 -->
<svg width="620pt" height="612pt"
 viewBox="0.00 0.00 620.00 612.00" xmlns="http://www.w3.org/2000/svg" xmlns:xlink="http://www.w3.org/1999/xlink">
<g id="graph0" class="graph" transform="scale(1 1) rotate(0) translate(4 608)">
<title>controllers_diagram</title>
<polygon fill="white" stroke="none" points="-4,4 -4,-608 616,-608 616,4 -4,4"/>
<!-- _diagram_info -->
<g id="node1" class="node"><title>_diagram_info</title>
<text text-anchor="start" x="360" y="-431.6" font-family="Times,serif" font-size="13.00">Controllers diagram</text>
<text text-anchor="start" x="360" y="-417.6" font-family="Times,serif" font-size="13.00">Date: Nov 06 2014 &#45; 00:22</text>
<text text-anchor="start" x="360" y="-403.6" font-family="Times,serif" font-size="13.00">Migration version: 20141105002744</text>
<text text-anchor="start" x="360" y="-389.6" font-family="Times,serif" font-size="13.00">Generated by RailRoady 1.2.0</text>
<text text-anchor="start" x="360" y="-375.6" font-family="Times,serif" font-size="13.00">http://railroady.prestonlee.com</text>
</g>
<!-- UsersController -->
<g id="node2" class="node"><title>UsersController</title>
<path fill="none" stroke="black" d="M12,-240.5C12,-240.5 98,-240.5 98,-240.5 104,-240.5 110,-246.5 110,-252.5 110,-252.5 110,-396.5 110,-396.5 110,-402.5 104,-408.5 98,-408.5 98,-408.5 12,-408.5 12,-408.5 6,-408.5 -2.84217e-14,-402.5 -2.84217e-14,-396.5 -2.84217e-14,-396.5 -2.84217e-14,-252.5 -2.84217e-14,-252.5 -2.84217e-14,-246.5 6,-240.5 12,-240.5"/>
<text text-anchor="middle" x="55" y="-393.3" font-family="Times,serif" font-size="14.00">UsersController</text>
<polyline fill="none" stroke="black" points="-2.84217e-14,-385.5 110,-385.5 "/>
<text text-anchor="start" x="8" y="-370.3" font-family="Times,serif" font-size="14.00">edit</text>
<text text-anchor="start" x="8" y="-355.3" font-family="Times,serif" font-size="14.00">followers</text>
<text text-anchor="start" x="8" y="-340.3" font-family="Times,serif" font-size="14.00">following</text>
<text text-anchor="start" x="8" y="-325.3" font-family="Times,serif" font-size="14.00">update_password</text>
<polyline fill="none" stroke="black" points="-2.84217e-14,-317.5 110,-317.5 "/>
<polyline fill="none" stroke="black" points="-2.84217e-14,-293.5 110,-293.5 "/>
<text text-anchor="start" x="8" y="-278.3" font-family="Times,serif" font-size="14.00">_layout</text>
<text text-anchor="start" x="8" y="-263.3" font-family="Times,serif" font-size="14.00">set_user</text>
<text text-anchor="start" x="8" y="-248.3" font-family="Times,serif" font-size="14.00">user_params</text>
</g>
<!-- ProfilesController -->
<g id="node3" class="node"><title>ProfilesController</title>
<path fill="none" stroke="black" d="M12,-80.5C12,-80.5 102,-80.5 102,-80.5 108,-80.5 114,-86.5 114,-92.5 114,-92.5 114,-191.5 114,-191.5 114,-197.5 108,-203.5 102,-203.5 102,-203.5 12,-203.5 12,-203.5 6,-203.5 -2.84217e-14,-197.5 -2.84217e-14,-191.5 -2.84217e-14,-191.5 -2.84217e-14,-92.5 -2.84217e-14,-92.5 -2.84217e-14,-86.5 6,-80.5 12,-80.5"/>
<text text-anchor="middle" x="57" y="-188.3" font-family="Times,serif" font-size="14.00">ProfilesController</text>
<polyline fill="none" stroke="black" points="-2.84217e-14,-180.5 114,-180.5 "/>
<text text-anchor="start" x="8" y="-165.3" font-family="Times,serif" font-size="14.00">show</text>
<text text-anchor="start" x="8" y="-150.3" font-family="Times,serif" font-size="14.00">turn_to_elector</text>
<text text-anchor="start" x="8" y="-135.3" font-family="Times,serif" font-size="14.00">turn_to_politician</text>
<polyline fill="none" stroke="black" points="-2.84217e-14,-127.5 114,-127.5 "/>
<polyline fill="none" stroke="black" points="-2.84217e-14,-103.5 114,-103.5 "/>
<text text-anchor="start" x="8" y="-88.3" font-family="Times,serif" font-size="14.00">_layout</text>
</g>
<!-- PostLikesController -->
<g id="node4" class="node"><title>PostLikesController</title>
<path fill="none" stroke="black" d="M476,-480.5C476,-480.5 577,-480.5 577,-480.5 583,-480.5 589,-486.5 589,-492.5 589,-492.5 589,-591.5 589,-591.5 589,-597.5 583,-603.5 577,-603.5 577,-603.5 476,-603.5 476,-603.5 470,-603.5 464,-597.5 464,-591.5 464,-591.5 464,-492.5 464,-492.5 464,-486.5 470,-480.5 476,-480.5"/>
<text text-anchor="middle" x="526.5" y="-588.3" font-family="Times,serif" font-size="14.00">PostLikesController</text>
<polyline fill="none" stroke="black" points="464,-580.5 589,-580.5 "/>
<text text-anchor="start" x="472" y="-565.3" font-family="Times,serif" font-size="14.00">dislike</text>
<text text-anchor="start" x="472" y="-550.3" font-family="Times,serif" font-size="14.00">like</text>
<polyline fill="none" stroke="black" points="464,-542.5 589,-542.5 "/>
<polyline fill="none" stroke="black" points="464,-518.5 589,-518.5 "/>
<text text-anchor="start" x="472" y="-503.3" font-family="Times,serif" font-size="14.00">_layout</text>
<text text-anchor="start" x="472" y="-488.3" font-family="Times,serif" font-size="14.00">set_post_like</text>
</g>
<!-- PoliticalPartyLikesController -->
<g id="node5" class="node"><title>PoliticalPartyLikesController</title>
<path fill="none" stroke="black" d="M156,-368.5C156,-368.5 308,-368.5 308,-368.5 314,-368.5 320,-374.5 320,-380.5 320,-380.5 320,-479.5 320,-479.5 320,-485.5 314,-491.5 308,-491.5 308,-491.5 156,-491.5 156,-491.5 150,-491.5 144,-485.5 144,-479.5 144,-479.5 144,-380.5 144,-380.5 144,-374.5 150,-368.5 156,-368.5"/>
<text text-anchor="middle" x="232" y="-476.3" font-family="Times,serif" font-size="14.00">PoliticalPartyLikesController</text>
<polyline fill="none" stroke="black" points="144,-468.5 320,-468.5 "/>
<text text-anchor="start" x="152" y="-453.3" font-family="Times,serif" font-size="14.00">dislike</text>
<text text-anchor="start" x="152" y="-438.3" font-family="Times,serif" font-size="14.00">like</text>
<polyline fill="none" stroke="black" points="144,-430.5 320,-430.5 "/>
<polyline fill="none" stroke="black" points="144,-406.5 320,-406.5 "/>
<text text-anchor="start" x="152" y="-391.3" font-family="Times,serif" font-size="14.00">_layout</text>
<text text-anchor="start" x="152" y="-376.3" font-family="Times,serif" font-size="14.00">set_political_party_like</text>
</g>
<!-- ApplicationController -->
<g id="node6" class="node"><title>ApplicationController</title>
<path fill="none" stroke="black" d="M236,-0.5C236,-0.5 406,-0.5 406,-0.5 412,-0.5 418,-6.5 418,-12.5 418,-12.5 418,-80.5 418,-80.5 418,-86.5 412,-92.5 406,-92.5 406,-92.5 236,-92.5 236,-92.5 230,-92.5 224,-86.5 224,-80.5 224,-80.5 224,-12.5 224,-12.5 224,-6.5 230,-0.5 236,-0.5"/>
<text text-anchor="middle" x="321" y="-77.3" font-family="Times,serif" font-size="14.00">ApplicationController</text>
<polyline fill="none" stroke="black" points="224,-69.5 418,-69.5 "/>
<text text-anchor="start" x="232" y="-54.3" font-family="Times,serif" font-size="14.00">require_admin</text>
<polyline fill="none" stroke="black" points="224,-46.5 418,-46.5 "/>
<text text-anchor="start" x="232" y="-31.3" font-family="Times,serif" font-size="14.00">configure_permitted_parameters</text>
<polyline fill="none" stroke="black" points="224,-23.5 418,-23.5 "/>
<text text-anchor="start" x="232" y="-8.3" font-family="Times,serif" font-size="14.00">_layout</text>
</g>
<!-- PagesController -->
<g id="node7" class="node"><title>PagesController</title>
<path fill="none" stroke="black" d="M12,-464.5C12,-464.5 92,-464.5 92,-464.5 98,-464.5 104,-470.5 104,-476.5 104,-476.5 104,-575.5 104,-575.5 104,-581.5 98,-587.5 92,-587.5 92,-587.5 12,-587.5 12,-587.5 6,-587.5 -2.84217e-14,-581.5 -2.84217e-14,-575.5 -2.84217e-14,-575.5 -2.84217e-14,-476.5 -2.84217e-14,-476.5 -2.84217e-14,-470.5 6,-464.5 12,-464.5"/>
<text text-anchor="middle" x="52" y="-572.3" font-family="Times,serif" font-size="14.00">PagesController</text>
<polyline fill="none" stroke="black" points="-2.84217e-14,-564.5 104,-564.5 "/>
<text text-anchor="start" x="8" y="-549.3" font-family="Times,serif" font-size="14.00">about</text>
<text text-anchor="start" x="8" y="-534.3" font-family="Times,serif" font-size="14.00">terms_of_use</text>
<text text-anchor="start" x="8" y="-519.3" font-family="Times,serif" font-size="14.00">welcome</text>
<polyline fill="none" stroke="black" points="-2.84217e-14,-511.5 104,-511.5 "/>
<polyline fill="none" stroke="black" points="-2.84217e-14,-487.5 104,-487.5 "/>
<text text-anchor="start" x="8" y="-472.3" font-family="Times,serif" font-size="14.00">_layout</text>
</g>
<!-- RelationshipsController -->
<g id="node8" class="node"><title>RelationshipsController</title>
<path fill="none" stroke="black" d="M476,-160.5C476,-160.5 598,-160.5 598,-160.5 604,-160.5 610,-166.5 610,-172.5 610,-172.5 610,-256.5 610,-256.5 610,-262.5 604,-268.5 598,-268.5 598,-268.5 476,-268.5 476,-268.5 470,-268.5 464,-262.5 464,-256.5 464,-256.5 464,-172.5 464,-172.5 464,-166.5 470,-160.5 476,-160.5"/>
<text text-anchor="middle" x="537" y="-253.3" font-family="Times,serif" font-size="14.00">RelationshipsController</text>
<polyline fill="none" stroke="black" points="464,-245.5 610,-245.5 "/>
<text text-anchor="start" x="472" y="-230.3" font-family="Times,serif" font-size="14.00">create</text>
<text text-anchor="start" x="472" y="-215.3" font-family="Times,serif" font-size="14.00">destroy</text>
<polyline fill="none" stroke="black" points="464,-207.5 610,-207.5 "/>
<polyline fill="none" stroke="black" points="464,-183.5 610,-183.5 "/>
<text text-anchor="start" x="472" y="-168.3" font-family="Times,serif" font-size="14.00">_layout</text>
</g>
<!-- PoliticalPartiesController -->
<g id="node9" class="node"><title>PoliticalPartiesController</title>
<path fill="none" stroke="black" d="M156,-128.5C156,-128.5 286,-128.5 286,-128.5 292,-128.5 298,-134.5 298,-140.5 298,-140.5 298,-329.5 298,-329.5 298,-335.5 292,-341.5 286,-341.5 286,-341.5 156,-341.5 156,-341.5 150,-341.5 144,-335.5 144,-329.5 144,-329.5 144,-140.5 144,-140.5 144,-134.5 150,-128.5 156,-128.5"/>
<text text-anchor="middle" x="221" y="-326.3" font-family="Times,serif" font-size="14.00">PoliticalPartiesController</text>
<polyline fill="none" stroke="black" points="144,-318.5 298,-318.5 "/>
<text text-anchor="start" x="152" y="-303.3" font-family="Times,serif" font-size="14.00">create</text>
<text text-anchor="start" x="152" y="-288.3" font-family="Times,serif" font-size="14.00">destroy</text>
<text text-anchor="start" x="152" y="-273.3" font-family="Times,serif" font-size="14.00">edit</text>
<text text-anchor="start" x="152" y="-258.3" font-family="Times,serif" font-size="14.00">index</text>
<text text-anchor="start" x="152" y="-243.3" font-family="Times,serif" font-size="14.00">new</text>
<text text-anchor="start" x="152" y="-228.3" font-family="Times,serif" font-size="14.00">show</text>
<text text-anchor="start" x="152" y="-213.3" font-family="Times,serif" font-size="14.00">update</text>
<polyline fill="none" stroke="black" points="144,-205.5 298,-205.5 "/>
<polyline fill="none" stroke="black" points="144,-181.5 298,-181.5 "/>
<text text-anchor="start" x="152" y="-166.3" font-family="Times,serif" font-size="14.00">_layout</text>
<text text-anchor="start" x="152" y="-151.3" font-family="Times,serif" font-size="14.00">political_party_params</text>
<text text-anchor="start" x="152" y="-136.3" font-family="Times,serif" font-size="14.00">set_political_party</text>
</g>
<!-- RegistrationsController -->
<g id="node10" class="node"><title>RegistrationsController</title>
<path fill="none" stroke="black" d="M476,-0.5C476,-0.5 600,-0.5 600,-0.5 606,-0.5 612,-6.5 612,-12.5 612,-12.5 612,-111.5 612,-111.5 612,-117.5 606,-123.5 600,-123.5 600,-123.5 476,-123.5 476,-123.5 470,-123.5 464,-117.5 464,-111.5 464,-111.5 464,-12.5 464,-12.5 464,-6.5 470,-0.5 476,-0.5"/>
<text text-anchor="middle" x="538" y="-108.3" font-family="Times,serif" font-size="14.00">RegistrationsController</text>
<polyline fill="none" stroke="black" points="464,-100.5 612,-100.5 "/>
<text text-anchor="start" x="472" y="-85.3" font-family="Times,serif" font-size="14.00">update</text>
<polyline fill="none" stroke="black" points="464,-77.5 612,-77.5 "/>
<polyline fill="none" stroke="black" points="464,-53.5 612,-53.5 "/>
<text text-anchor="start" x="472" y="-38.3" font-family="Times,serif" font-size="14.00">_layout</text>
<text text-anchor="start" x="472" y="-23.3" font-family="Times,serif" font-size="14.00">account_update_params</text>
<text text-anchor="start" x="472" y="-8.3" font-family="Times,serif" font-size="14.00">sign_up_params</text>
</g>
<!-- PostsController -->
<g id="node11" class="node"><title>PostsController</title>
<path fill="none" stroke="black" d="M348,-128.5C348,-128.5 425,-128.5 425,-128.5 431,-128.5 437,-134.5 437,-140.5 437,-140.5 437,-329.5 437,-329.5 437,-335.5 431,-341.5 425,-341.5 425,-341.5 348,-341.5 348,-341.5 342,-341.5 336,-335.5 336,-329.5 336,-329.5 336,-140.5 336,-140.5 336,-134.5 342,-128.5 348,-128.5"/>
<text text-anchor="middle" x="386.5" y="-326.3" font-family="Times,serif" font-size="14.00">PostsController</text>
<polyline fill="none" stroke="black" points="336,-318.5 437,-318.5 "/>
<text text-anchor="start" x="344" y="-303.3" font-family="Times,serif" font-size="14.00">create</text>
<text text-anchor="start" x="344" y="-288.3" font-family="Times,serif" font-size="14.00">destroy</text>
<text text-anchor="start" x="344" y="-273.3" font-family="Times,serif" font-size="14.00">edit</text>
<text text-anchor="start" x="344" y="-258.3" font-family="Times,serif" font-size="14.00">index</text>
<text text-anchor="start" x="344" y="-243.3" font-family="Times,serif" font-size="14.00">new</text>
<text text-anchor="start" x="344" y="-228.3" font-family="Times,serif" font-size="14.00">show</text>
<text text-anchor="start" x="344" y="-213.3" font-family="Times,serif" font-size="14.00">update</text>
<polyline fill="none" stroke="black" points="336,-205.5 437,-205.5 "/>
<polyline fill="none" stroke="black" points="336,-181.5 437,-181.5 "/>
<text text-anchor="start" x="344" y="-166.3" font-family="Times,serif" font-size="14.00">_layout</text>
<text text-anchor="start" x="344" y="-151.3" font-family="Times,serif" font-size="14.00">post_params</text>
<text text-anchor="start" x="344" y="-136.3" font-family="Times,serif" font-size="14.00">set_post</text>
</g>
</g>
</svg>
