<?xml version="1.0" encoding="UTF-8" standalone="no"?>
<!DOCTYPE svg PUBLIC "-//W3C//DTD SVG 1.1//EN"
 "http://www.w3.org/Graphics/SVG/1.1/DTD/svg11.dtd">
<!-- Generated by graphviz version 2.36.0 (20140111.2315)
 -->
<!-- Title: models_diagram Pages: 1 -->
<svg width="836pt" height="322pt"
 viewBox="0.00 0.00 836.00 322.00" xmlns="http://www.w3.org/2000/svg" xmlns:xlink="http://www.w3.org/1999/xlink">
<g id="graph0" class="graph" transform="scale(1 1) rotate(0) translate(4 318)">
<title>models_diagram</title>
<polygon fill="white" stroke="none" points="-4,4 -4,-318 832,-318 832,4 -4,4"/>
<!-- _diagram_info -->
<g id="node1" class="node"><title>_diagram_info</title>
<text text-anchor="start" x="337" y="-299.6" font-family="Times,serif" font-size="13.00">Models diagram</text>
<text text-anchor="start" x="337" y="-285.6" font-family="Times,serif" font-size="13.00">Date: Nov 06 2014 &#45; 00:22</text>
<text text-anchor="start" x="337" y="-271.6" font-family="Times,serif" font-size="13.00">Migration version: 20141105002744</text>
<text text-anchor="start" x="337" y="-257.6" font-family="Times,serif" font-size="13.00">Generated by RailRoady 1.2.0</text>
<text text-anchor="start" x="337" y="-243.6" font-family="Times,serif" font-size="13.00">http://railroady.prestonlee.com</text>
</g>
<!-- User -->
<g id="node2" class="node"><title>User</title>
<ellipse fill="none" stroke="black" cx="315" cy="-180" rx="26.949" ry="18"/>
<text text-anchor="middle" x="315" y="-176.3" font-family="Times,serif" font-size="14.00">User</text>
</g>
<!-- User&#45;&gt;User -->
<g id="edge5" class="edge"><title>User&#45;&gt;User</title>
<path fill="none" stroke="#50be5f" d="M352.51,-181.939C357.038,-181.589 360,-180.943 360,-180 360,-179.057 357.038,-178.411 352.51,-178.061"/>
<polygon fill="#50be5f" stroke="#50be5f" points="352.236,-181.947 342.106,-177.75 347.239,-182.098 342.241,-182.248 342.241,-182.248 342.241,-182.248 347.239,-182.098 342.376,-186.746 352.236,-181.947 352.236,-181.947"/>
<polygon fill="#50be5f" stroke="#50be5f" points="352.236,-178.053 342.376,-173.254 347.239,-177.902 342.241,-177.752 342.241,-177.752 342.241,-177.752 347.239,-177.902 342.106,-182.25 352.236,-178.053 352.236,-178.053"/>
<text text-anchor="middle" x="401.5" y="-176.3" font-family="Times,serif" font-size="14.00">followed_users</text>
</g>
<!-- User&#45;&gt;User -->
<g id="edge7" class="edge"><title>User&#45;&gt;User</title>
<path fill="none" stroke="#0eaa4c" d="M351.739,-183.773C390.416,-185.464 443,-184.206 443,-180 443,-175.794 390.416,-174.536 351.739,-176.227"/>
<polygon fill="#0eaa4c" stroke="#0eaa4c" points="351.737,-183.773 341.987,-178.755 346.744,-183.511 341.751,-183.249 341.751,-183.249 341.751,-183.249 346.744,-183.511 341.515,-187.742 351.737,-183.773 351.737,-183.773"/>
<polygon fill="#0eaa4c" stroke="#0eaa4c" points="351.737,-176.227 341.515,-172.258 346.744,-176.489 341.751,-176.751 341.751,-176.751 341.751,-176.751 346.744,-176.489 341.987,-181.245 351.737,-176.227 351.737,-176.227"/>
<text text-anchor="middle" x="469" y="-176.3" font-family="Times,serif" font-size="14.00">followers</text>
</g>
<!-- User&#45;&gt;User -->
<g id="edge9" class="edge"><title>User&#45;&gt;User</title>
<path fill="none" stroke="#d1e752" d="M351.65,-184.878C405.857,-188.496 495,-186.87 495,-180 495,-173.13 405.857,-171.504 351.65,-175.122"/>
<polygon fill="#d1e752" stroke="#d1e752" points="351.608,-184.875 341.98,-179.626 346.623,-184.494 341.637,-184.113 341.637,-184.113 341.637,-184.113 346.623,-184.494 341.295,-188.6 351.608,-184.875 351.608,-184.875"/>
<polygon fill="#d1e752" stroke="#d1e752" points="351.608,-175.125 341.295,-171.4 346.623,-175.506 341.637,-175.887 341.637,-175.887 341.637,-175.887 346.623,-175.506 341.98,-180.374 351.608,-175.125 351.608,-175.125"/>
<text text-anchor="middle" x="526.5" y="-176.3" font-family="Times,serif" font-size="14.00">likes_given</text>
</g>
<!-- PoliticianLike -->
<g id="node3" class="node"><title>PoliticianLike</title>
<ellipse fill="none" stroke="black" cx="601" cy="-92" rx="60.1672" ry="18"/>
<text text-anchor="middle" x="601" y="-88.3" font-family="Times,serif" font-size="14.00">PoliticianLike</text>
</g>
<!-- User&#45;&gt;PoliticianLike -->
<g id="edge8" class="edge"><title>User&#45;&gt;PoliticianLike</title>
<path fill="none" stroke="#75f9b0" d="M348.933,-172.762C380.386,-166.633 428.316,-156.411 469,-144 499.63,-134.656 533.29,-121.606 558.953,-111.045"/>
<ellipse fill="none" stroke="#75f9b0" cx="344.841" cy="-173.549" rx="4.00001" ry="4.00001"/>
<polygon fill="#75f9b0" stroke="#75f9b0" points="559.139,-110.968 570.1,-111.289 563.757,-109.051 568.374,-107.133 568.374,-107.133 568.374,-107.133 563.757,-109.051 566.648,-102.977 559.139,-110.968 559.139,-110.968"/>
</g>
<!-- PostLike -->
<g id="node4" class="node"><title>PostLike</title>
<ellipse fill="none" stroke="black" cx="43" cy="-18" rx="42.3701" ry="18"/>
<text text-anchor="middle" x="43" y="-14.3" font-family="Times,serif" font-size="14.00">PostLike</text>
</g>
<!-- User&#45;&gt;PostLike -->
<g id="edge2" class="edge"><title>User&#45;&gt;PostLike</title>
<path fill="none" stroke="#26b1da" d="M279.853,-175.962C211.966,-169.225 67.2488,-150.333 42,-110 30.1165,-91.0169 31.6996,-65.1559 35.4796,-45.8538"/>
<ellipse fill="none" stroke="#26b1da" cx="284.145" cy="-176.376" rx="4" ry="4"/>
<polygon fill="#26b1da" stroke="#26b1da" points="35.527,-45.644 42.1231,-36.8838 36.6305,-40.7673 37.734,-35.8906 37.734,-35.8906 37.734,-35.8906 36.6305,-40.7673 33.345,-34.8975 35.527,-45.644 35.527,-45.644"/>
</g>
<!-- Post -->
<g id="node5" class="node"><title>Post</title>
<ellipse fill="none" stroke="black" cx="78" cy="-92" rx="27" ry="18"/>
<text text-anchor="middle" x="78" y="-88.3" font-family="Times,serif" font-size="14.00">Post</text>
</g>
<!-- User&#45;&gt;Post -->
<g id="edge1" class="edge"><title>User&#45;&gt;Post</title>
<path fill="none" stroke="#7684a7" d="M279.505,-176.844C243.202,-173.519 185.919,-165.12 141,-144 125.686,-136.8 110.859,-125.111 99.4393,-114.739"/>
<ellipse fill="none" stroke="#7684a7" cx="283.828" cy="-177.211" rx="4" ry="4"/>
<polygon fill="#7684a7" stroke="#7684a7" points="99.3939,-114.696 95.1992,-104.565 95.7539,-111.268 92.114,-107.84 92.114,-107.84 92.114,-107.84 95.7539,-111.268 89.0288,-111.116 99.3939,-114.696 99.3939,-114.696"/>
</g>
<!-- Relationship -->
<g id="node6" class="node"><title>Relationship</title>
<ellipse fill="none" stroke="black" cx="178" cy="-92" rx="55.3682" ry="18"/>
<text text-anchor="middle" x="178" y="-88.3" font-family="Times,serif" font-size="14.00">Relationship</text>
</g>
<!-- User&#45;&gt;Relationship -->
<g id="edge4" class="edge"><title>User&#45;&gt;Relationship</title>
<path fill="none" stroke="#236341" d="M298.662,-157.109C290.361,-147.173 279.587,-135.902 268,-128 255.963,-119.791 241.727,-113.122 228.171,-107.893"/>
<ellipse fill="none" stroke="#236341" cx="301.229" cy="-160.287" rx="4.00002" ry="4.00002"/>
<polygon fill="#236341" stroke="#236341" points="227.853,-107.777 220.009,-100.113 223.158,-106.058 218.462,-104.339 218.462,-104.339 218.462,-104.339 223.158,-106.058 216.915,-108.565 227.853,-107.777 227.853,-107.777"/>
</g>
<!-- User&#45;&gt;Relationship -->
<g id="edge6" class="edge"><title>User&#45;&gt;Relationship</title>
<path fill="none" stroke="#03251d" d="M279.987,-176.67C236.248,-172.946 165.167,-163.931 149,-144 142.319,-135.763 145.87,-125.79 152.436,-116.855"/>
<ellipse fill="none" stroke="#03251d" cx="284.094" cy="-177.003" rx="4" ry="4"/>
<polygon fill="#03251d" stroke="#03251d" points="152.623,-116.635 162.532,-111.938 155.864,-112.828 159.105,-109.021 159.105,-109.021 159.105,-109.021 155.864,-112.828 155.679,-106.104 152.623,-116.635 152.623,-116.635"/>
<text text-anchor="middle" x="206.5" y="-132.3" font-family="Times,serif" font-size="14.00">reverse_relationships</text>
</g>
<!-- PoliticalPartyLike -->
<g id="node8" class="node"><title>PoliticalPartyLike</title>
<ellipse fill="none" stroke="black" cx="754" cy="-92" rx="74.6146" ry="18"/>
<text text-anchor="middle" x="754" y="-88.3" font-family="Times,serif" font-size="14.00">PoliticalPartyLike</text>
</g>
<!-- User&#45;&gt;PoliticalPartyLike -->
<g id="edge3" class="edge"><title>User&#45;&gt;PoliticalPartyLike</title>
<path fill="none" stroke="#f4b95b" d="M349.028,-172.942C387.077,-166.119 450.516,-154.597 505,-144 567.811,-131.784 639.358,-117.043 689.591,-106.558"/>
<ellipse fill="none" stroke="#f4b95b" cx="344.783" cy="-173.702" rx="4.00001" ry="4.00001"/>
<polygon fill="#f4b95b" stroke="#f4b95b" points="689.871,-106.499 700.58,-108.858 694.765,-105.477 699.659,-104.454 699.659,-104.454 699.659,-104.454 694.765,-105.477 698.739,-100.049 689.871,-106.499 689.871,-106.499"/>
</g>
<!-- PoliticianLikes -->
<g id="node9" class="node"><title>PoliticianLikes</title>
<ellipse fill="none" stroke="black" cx="315" cy="-92" rx="63.5411" ry="18"/>
<text text-anchor="middle" x="315" y="-88.3" font-family="Times,serif" font-size="14.00">PoliticianLikes</text>
</g>
<!-- User&#45;&gt;PoliticianLikes -->
<g id="edge10" class="edge"><title>User&#45;&gt;PoliticianLikes</title>
<path fill="none" stroke="#4e5e37" d="M315,-153.339C315,-142.855 315,-130.718 315,-120.091"/>
<ellipse fill="none" stroke="#4e5e37" cx="315" cy="-157.597" rx="4" ry="4"/>
<polygon fill="#4e5e37" stroke="#4e5e37" points="315,-120.084 319.5,-110.084 315,-115.084 315,-110.084 315,-110.084 315,-110.084 315,-115.084 310.5,-110.084 315,-120.084 315,-120.084"/>
<text text-anchor="middle" x="383" y="-132.3" font-family="Times,serif" font-size="14.00">politician_likes_received</text>
</g>
<!-- LikesReceived -->
<g id="node10" class="node"><title>LikesReceived</title>
<ellipse fill="none" stroke="black" cx="460" cy="-92" rx="63.0666" ry="18"/>
<text text-anchor="middle" x="460" y="-88.3" font-family="Times,serif" font-size="14.00">LikesReceived</text>
</g>
<!-- User&#45;&gt;LikesReceived -->
<g id="edge11" class="edge"><title>User&#45;&gt;LikesReceived</title>
<path fill="none" stroke="#c64d55" d="M351.734,-174.213C387.595,-168.762 438.657,-158.668 452,-144 457.831,-137.59 460.399,-128.747 461.336,-120.223"/>
<polygon fill="#c64d55" stroke="#c64d55" points="351.505,-174.246 340.96,-171.239 346.557,-174.969 341.61,-175.692 341.61,-175.692 341.61,-175.692 346.557,-174.969 342.26,-180.144 351.505,-174.246 351.505,-174.246"/>
<polygon fill="#c64d55" stroke="#c64d55" points="461.339,-120.159 466.277,-110.368 461.56,-115.164 461.781,-110.169 461.781,-110.169 461.781,-110.169 461.56,-115.164 457.286,-109.97 461.339,-120.159 461.339,-120.159"/>
</g>
<!-- Post&#45;&gt;PostLike -->
<g id="edge12" class="edge"><title>Post&#45;&gt;PostLike</title>
<path fill="none" stroke="#954709" d="M66.558,-67.4621C63.0997,-60.3479 59.2813,-52.4929 55.7436,-45.2153"/>
<ellipse fill="none" stroke="#954709" cx="68.3092" cy="-71.0646" rx="4.00002" ry="4.00002"/>
<polygon fill="#954709" stroke="#954709" points="55.5255,-44.7666 55.2007,-33.8055 53.3395,-40.2698 51.1535,-35.7729 51.1535,-35.7729 51.1535,-35.7729 53.3395,-40.2698 47.1063,-37.7403 55.5255,-44.7666 55.5255,-44.7666"/>
</g>
<!-- PoliticalParty -->
<g id="node7" class="node"><title>PoliticalParty</title>
<ellipse fill="none" stroke="black" cx="619" cy="-275" rx="58.2422" ry="18"/>
<text text-anchor="middle" x="619" y="-271.3" font-family="Times,serif" font-size="14.00">PoliticalParty</text>
</g>
<!-- PoliticalParty&#45;&gt;User -->
<g id="edge13" class="edge"><title>PoliticalParty&#45;&gt;User</title>
<path fill="none" stroke="#56a3d0" d="M588.098,-254.318C576.768,-247.758 563.622,-240.885 551,-236 482.973,-209.671 398.835,-193.777 351.616,-186.261"/>
<ellipse fill="none" stroke="#56a3d0" cx="591.817" cy="-256.521" rx="4.00002" ry="4.00002"/>
<polygon fill="#56a3d0" stroke="#56a3d0" points="351.44,-186.234 342.25,-180.252 346.499,-185.466 341.559,-184.698 341.559,-184.698 341.559,-184.698 346.499,-185.466 340.868,-189.145 351.44,-186.234 351.44,-186.234"/>
</g>
<!-- PoliticalParty&#45;&gt;PoliticalPartyLike -->
<g id="edge14" class="edge"><title>PoliticalParty&#45;&gt;PoliticalPartyLike</title>
<path fill="none" stroke="#1b8fd0" d="M636.293,-250.815C661.698,-216.753 708.931,-153.426 735.18,-118.233"/>
<ellipse fill="none" stroke="#1b8fd0" cx="633.85" cy="-254.09" rx="4.00002" ry="4.00002"/>
<polygon fill="#1b8fd0" stroke="#1b8fd0" points="735.397,-117.942 744.983,-112.617 738.386,-113.934 741.375,-109.926 741.375,-109.926 741.375,-109.926 738.386,-113.934 737.768,-107.236 735.397,-117.942 735.397,-117.942"/>
</g>
</g>
</svg>
