<?xml version="1.0" encoding="UTF-8" standalone="no"?>
<!DOCTYPE svg PUBLIC "-//W3C//DTD SVG 1.1//EN"
 "http://www.w3.org/Graphics/SVG/1.1/DTD/svg11.dtd">
<!-- Generated by graphviz version 2.36.0 (20140111.2315)
 -->
<!-- Title: models_diagram Pages: 1 -->
<svg width="968pt" height="956pt"
 viewBox="0.00 0.00 968.00 956.00" xmlns="http://www.w3.org/2000/svg" xmlns:xlink="http://www.w3.org/1999/xlink">
<g id="graph0" class="graph" transform="scale(1 1) rotate(0) translate(4 952)">
<title>models_diagram</title>
<polygon fill="white" stroke="none" points="-4,4 -4,-952 964,-952 964,4 -4,4"/>
<!-- _diagram_info -->
<g id="node1" class="node"><title>_diagram_info</title>
<text text-anchor="start" x="447" y="-903.6" font-family="Times,serif" font-size="13.00">Models diagram</text>
<text text-anchor="start" x="447" y="-889.6" font-family="Times,serif" font-size="13.00">Date: Nov 06 2014 &#45; 00:22</text>
<text text-anchor="start" x="447" y="-875.6" font-family="Times,serif" font-size="13.00">Migration version: 20141105002744</text>
<text text-anchor="start" x="447" y="-861.6" font-family="Times,serif" font-size="13.00">Generated by RailRoady 1.2.0</text>
<text text-anchor="start" x="447" y="-847.6" font-family="Times,serif" font-size="13.00">http://railroady.prestonlee.com</text>
</g>
<!-- User -->
<g id="node2" class="node"><title>User</title>
<path fill="none" stroke="black" d="M329,-335C329,-335 523,-335 523,-335 529,-335 535,-341 535,-347 535,-347 535,-759 535,-759 535,-765 529,-771 523,-771 523,-771 329,-771 329,-771 323,-771 317,-765 317,-759 317,-759 317,-347 317,-347 317,-341 323,-335 329,-335"/>
<text text-anchor="middle" x="426" y="-755.8" font-family="Times,serif" font-size="14.00">User</text>
<polyline fill="none" stroke="black" points="317,-748 535,-748 "/>
<text text-anchor="start" x="325" y="-732.8" font-family="Times,serif" font-size="14.00">id :integer</text>
<text text-anchor="start" x="325" y="-717.8" font-family="Times,serif" font-size="14.00">email :string</text>
<text text-anchor="start" x="325" y="-702.8" font-family="Times,serif" font-size="14.00">encrypted_password :string</text>
<text text-anchor="start" x="325" y="-687.8" font-family="Times,serif" font-size="14.00">reset_password_token :string</text>
<text text-anchor="start" x="325" y="-672.8" font-family="Times,serif" font-size="14.00">reset_password_sent_at :datetime</text>
<text text-anchor="start" x="325" y="-657.8" font-family="Times,serif" font-size="14.00">remember_created_at :datetime</text>
<text text-anchor="start" x="325" y="-642.8" font-family="Times,serif" font-size="14.00">sign_in_count :integer</text>
<text text-anchor="start" x="325" y="-627.8" font-family="Times,serif" font-size="14.00">current_sign_in_at :datetime</text>
<text text-anchor="start" x="325" y="-612.8" font-family="Times,serif" font-size="14.00">last_sign_in_at :datetime</text>
<text text-anchor="start" x="325" y="-597.8" font-family="Times,serif" font-size="14.00">current_sign_in_ip :string</text>
<text text-anchor="start" x="325" y="-582.8" font-family="Times,serif" font-size="14.00">last_sign_in_ip :string</text>
<text text-anchor="start" x="325" y="-567.8" font-family="Times,serif" font-size="14.00">first_name :string</text>
<text text-anchor="start" x="325" y="-552.8" font-family="Times,serif" font-size="14.00">last_name :string</text>
<text text-anchor="start" x="325" y="-537.8" font-family="Times,serif" font-size="14.00">birth_date :date</text>
<text text-anchor="start" x="325" y="-522.8" font-family="Times,serif" font-size="14.00">gender :string</text>
<text text-anchor="start" x="325" y="-507.8" font-family="Times,serif" font-size="14.00">city :string</text>
<text text-anchor="start" x="325" y="-492.8" font-family="Times,serif" font-size="14.00">state :string</text>
<text text-anchor="start" x="325" y="-477.8" font-family="Times,serif" font-size="14.00">username :string</text>
<text text-anchor="start" x="325" y="-462.8" font-family="Times,serif" font-size="14.00">created_at :datetime</text>
<text text-anchor="start" x="325" y="-447.8" font-family="Times,serif" font-size="14.00">updated_at :datetime</text>
<text text-anchor="start" x="325" y="-432.8" font-family="Times,serif" font-size="14.00">profile_picture_file_name :string</text>
<text text-anchor="start" x="325" y="-417.8" font-family="Times,serif" font-size="14.00">profile_picture_content_type :string</text>
<text text-anchor="start" x="325" y="-402.8" font-family="Times,serif" font-size="14.00">profile_picture_file_size :integer</text>
<text text-anchor="start" x="325" y="-387.8" font-family="Times,serif" font-size="14.00">profile_picture_updated_at :datetime</text>
<text text-anchor="start" x="325" y="-372.8" font-family="Times,serif" font-size="14.00">politician :boolean</text>
<text text-anchor="start" x="325" y="-357.8" font-family="Times,serif" font-size="14.00">political_party_id :integer</text>
<text text-anchor="start" x="325" y="-342.8" font-family="Times,serif" font-size="14.00">admin :boolean</text>
</g>
<!-- User&#45;&gt;User -->
<g id="edge5" class="edge"><title>User&#45;&gt;User</title>
<path fill="none" stroke="#7a452d" d="M544.937,-562.051C550.035,-559.728 553,-556.711 553,-553 553,-549.289 550.035,-546.272 544.937,-543.949"/>
<polygon fill="#7a452d" stroke="#7a452d" points="544.818,-562.089 533.923,-560.842 540.054,-563.609 535.291,-565.129 535.291,-565.129 535.291,-565.129 540.054,-563.609 536.659,-569.416 544.818,-562.089 544.818,-562.089"/>
<polygon fill="#7a452d" stroke="#7a452d" points="544.818,-543.911 536.659,-536.584 540.054,-542.391 535.291,-540.871 535.291,-540.871 535.291,-540.871 540.054,-542.391 533.923,-545.158 544.818,-543.911 544.818,-543.911"/>
<text text-anchor="middle" x="594.5" y="-549.3" font-family="Times,serif" font-size="14.00">followed_users</text>
</g>
<!-- User&#45;&gt;User -->
<g id="edge7" class="edge"><title>User&#45;&gt;User</title>
<path fill="none" stroke="#982d8c" d="M545.106,-582.725C593.227,-583.312 636,-573.403 636,-553 636,-532.597 593.227,-522.688 545.106,-523.275"/>
<polygon fill="#982d8c" stroke="#982d8c" points="545.092,-582.725 535.218,-577.956 540.094,-582.59 535.096,-582.455 535.096,-582.455 535.096,-582.455 540.094,-582.59 534.974,-586.953 545.092,-582.725 545.092,-582.725"/>
<polygon fill="#982d8c" stroke="#982d8c" points="545.092,-523.275 534.974,-519.047 540.094,-523.41 535.096,-523.545 535.096,-523.545 535.096,-523.545 540.094,-523.41 535.218,-528.044 545.092,-523.275 545.092,-523.275"/>
<text text-anchor="middle" x="662" y="-549.3" font-family="Times,serif" font-size="14.00">followers</text>
</g>
<!-- User&#45;&gt;User -->
<g id="edge9" class="edge"><title>User&#45;&gt;User</title>
<path fill="none" stroke="#7a62dd" d="M545.566,-596.205C615.91,-602.458 688,-588.057 688,-553 688,-517.943 615.91,-503.542 545.566,-509.795"/>
<polygon fill="#7a62dd" stroke="#7a62dd" points="545.156,-596.163 535.673,-590.657 540.183,-595.648 535.209,-595.133 535.209,-595.133 535.209,-595.133 540.183,-595.648 534.746,-599.609 545.156,-596.163 545.156,-596.163"/>
<polygon fill="#7a62dd" stroke="#7a62dd" points="545.156,-509.837 534.746,-506.391 540.183,-510.352 535.209,-510.867 535.209,-510.867 535.209,-510.867 540.183,-510.352 535.673,-515.343 545.156,-509.837 545.156,-509.837"/>
<text text-anchor="middle" x="719.5" y="-549.3" font-family="Times,serif" font-size="14.00">likes_given</text>
</g>
<!-- PoliticianLike -->
<g id="node3" class="node"><title>PoliticianLike</title>
<path fill="none" stroke="black" d="M664.5,-160.5C664.5,-160.5 771.5,-160.5 771.5,-160.5 777.5,-160.5 783.5,-166.5 783.5,-172.5 783.5,-172.5 783.5,-269.5 783.5,-269.5 783.5,-275.5 777.5,-281.5 771.5,-281.5 771.5,-281.5 664.5,-281.5 664.5,-281.5 658.5,-281.5 652.5,-275.5 652.5,-269.5 652.5,-269.5 652.5,-172.5 652.5,-172.5 652.5,-166.5 658.5,-160.5 664.5,-160.5"/>
<text text-anchor="middle" x="718" y="-266.3" font-family="Times,serif" font-size="14.00">PoliticianLike</text>
<polyline fill="none" stroke="black" points="652.5,-258.5 783.5,-258.5 "/>
<text text-anchor="start" x="660.5" y="-243.3" font-family="Times,serif" font-size="14.00">id :integer</text>
<text text-anchor="start" x="660.5" y="-228.3" font-family="Times,serif" font-size="14.00">liker_id :integer</text>
<text text-anchor="start" x="660.5" y="-213.3" font-family="Times,serif" font-size="14.00">liked_id :integer</text>
<text text-anchor="start" x="660.5" y="-198.3" font-family="Times,serif" font-size="14.00">value :boolean</text>
<text text-anchor="start" x="660.5" y="-183.3" font-family="Times,serif" font-size="14.00">created_at :datetime</text>
<text text-anchor="start" x="660.5" y="-168.3" font-family="Times,serif" font-size="14.00">updated_at :datetime</text>
</g>
<!-- User&#45;&gt;PoliticianLike -->
<g id="edge8" class="edge"><title>User&#45;&gt;PoliticianLike</title>
<path fill="none" stroke="#794ded" d="M540.63,-422.452C580.866,-376.981 624.438,-327.738 658.327,-289.439"/>
<ellipse fill="none" stroke="#794ded" cx="537.796" cy="-425.655" rx="4.00002" ry="4.00002"/>
<polygon fill="#794ded" stroke="#794ded" points="658.345,-289.419 668.342,-284.911 661.658,-285.674 664.972,-281.929 664.972,-281.929 664.972,-281.929 661.658,-285.674 661.601,-278.947 658.345,-289.419 658.345,-289.419"/>
</g>
<!-- PostLike -->
<g id="node4" class="node"><title>PostLike</title>
<path fill="none" stroke="black" d="M11.5,-0.5C11.5,-0.5 118.5,-0.5 118.5,-0.5 124.5,-0.5 130.5,-6.5 130.5,-12.5 130.5,-12.5 130.5,-109.5 130.5,-109.5 130.5,-115.5 124.5,-121.5 118.5,-121.5 118.5,-121.5 11.5,-121.5 11.5,-121.5 5.5,-121.5 -0.5,-115.5 -0.5,-109.5 -0.5,-109.5 -0.5,-12.5 -0.5,-12.5 -0.5,-6.5 5.5,-0.5 11.5,-0.5"/>
<text text-anchor="middle" x="65" y="-106.3" font-family="Times,serif" font-size="14.00">PostLike</text>
<polyline fill="none" stroke="black" points="-0.5,-98.5 130.5,-98.5 "/>
<text text-anchor="start" x="7.5" y="-83.3" font-family="Times,serif" font-size="14.00">id :integer</text>
<text text-anchor="start" x="7.5" y="-68.3" font-family="Times,serif" font-size="14.00">user_id :integer</text>
<text text-anchor="start" x="7.5" y="-53.3" font-family="Times,serif" font-size="14.00">post_id :integer</text>
<text text-anchor="start" x="7.5" y="-38.3" font-family="Times,serif" font-size="14.00">value :integer</text>
<text text-anchor="start" x="7.5" y="-23.3" font-family="Times,serif" font-size="14.00">created_at :datetime</text>
<text text-anchor="start" x="7.5" y="-8.3" font-family="Times,serif" font-size="14.00">updated_at :datetime</text>
</g>
<!-- User&#45;&gt;PostLike -->
<g id="edge2" class="edge"><title>User&#45;&gt;PostLike</title>
<path fill="none" stroke="#4bb487" d="M309.591,-502.963C222.144,-459.151 108.739,-385.774 56,-282 32.5728,-235.903 36.4161,-177.096 45.2516,-131.882"/>
<ellipse fill="none" stroke="#4bb487" cx="313.319" cy="-504.812" rx="4.00002" ry="4.00002"/>
<polygon fill="#4bb487" stroke="#4bb487" points="45.2979,-131.659 51.7382,-122.783 46.3151,-126.763 47.3323,-121.868 47.3323,-121.868 47.3323,-121.868 46.3151,-126.763 42.9264,-120.952 45.2979,-131.659 45.2979,-131.659"/>
</g>
<!-- Post -->
<g id="node5" class="node"><title>Post</title>
<path fill="none" stroke="black" d="M76.5,-168C76.5,-168 183.5,-168 183.5,-168 189.5,-168 195.5,-174 195.5,-180 195.5,-180 195.5,-262 195.5,-262 195.5,-268 189.5,-274 183.5,-274 183.5,-274 76.5,-274 76.5,-274 70.5,-274 64.5,-268 64.5,-262 64.5,-262 64.5,-180 64.5,-180 64.5,-174 70.5,-168 76.5,-168"/>
<text text-anchor="middle" x="130" y="-258.8" font-family="Times,serif" font-size="14.00">Post</text>
<polyline fill="none" stroke="black" points="64.5,-251 195.5,-251 "/>
<text text-anchor="start" x="72.5" y="-235.8" font-family="Times,serif" font-size="14.00">id :integer</text>
<text text-anchor="start" x="72.5" y="-220.8" font-family="Times,serif" font-size="14.00">content :text</text>
<text text-anchor="start" x="72.5" y="-205.8" font-family="Times,serif" font-size="14.00">created_at :datetime</text>
<text text-anchor="start" x="72.5" y="-190.8" font-family="Times,serif" font-size="14.00">updated_at :datetime</text>
<text text-anchor="start" x="72.5" y="-175.8" font-family="Times,serif" font-size="14.00">user_id :integer</text>
</g>
<!-- User&#45;&gt;Post -->
<g id="edge1" class="edge"><title>User&#45;&gt;Post</title>
<path fill="none" stroke="#ec1229" d="M311.226,-424.043C267.301,-375.072 219.259,-321.512 183.682,-281.848"/>
<ellipse fill="none" stroke="#ec1229" cx="313.951" cy="-427.08" rx="4.00002" ry="4.00002"/>
<polygon fill="#ec1229" stroke="#ec1229" points="183.415,-281.55 180.087,-271.101 180.076,-277.828 176.737,-274.106 176.737,-274.106 176.737,-274.106 180.076,-277.828 173.388,-277.111 183.415,-281.55 183.415,-281.55"/>
</g>
<!-- Relationship -->
<g id="node6" class="node"><title>Relationship</title>
<path fill="none" stroke="black" d="M225.5,-168C225.5,-168 332.5,-168 332.5,-168 338.5,-168 344.5,-174 344.5,-180 344.5,-180 344.5,-262 344.5,-262 344.5,-268 338.5,-274 332.5,-274 332.5,-274 225.5,-274 225.5,-274 219.5,-274 213.5,-268 213.5,-262 213.5,-262 213.5,-180 213.5,-180 213.5,-174 219.5,-168 225.5,-168"/>
<text text-anchor="middle" x="279" y="-258.8" font-family="Times,serif" font-size="14.00">Relationship</text>
<polyline fill="none" stroke="black" points="213.5,-251 344.5,-251 "/>
<text text-anchor="start" x="221.5" y="-235.8" font-family="Times,serif" font-size="14.00">id :integer</text>
<text text-anchor="start" x="221.5" y="-220.8" font-family="Times,serif" font-size="14.00">follower_id :integer</text>
<text text-anchor="start" x="221.5" y="-205.8" font-family="Times,serif" font-size="14.00">followed_id :integer</text>
<text text-anchor="start" x="221.5" y="-190.8" font-family="Times,serif" font-size="14.00">created_at :datetime</text>
<text text-anchor="start" x="221.5" y="-175.8" font-family="Times,serif" font-size="14.00">updated_at :datetime</text>
</g>
<!-- User&#45;&gt;Relationship -->
<g id="edge4" class="edge"><title>User&#45;&gt;Relationship</title>
<path fill="none" stroke="#a38932" d="M394.077,-327.466C389.642,-317.916 384.64,-308.706 379,-300 371.359,-288.204 364.244,-290.432 353,-282 352.247,-281.436 351.492,-280.867 350.733,-280.294"/>
<ellipse fill="none" stroke="#a38932" cx="395.73" cy="-331.178" rx="4.00002" ry="4.00002"/>
<polygon fill="#a38932" stroke="#a38932" points="350.477,-280.097 345.268,-270.447 346.505,-277.059 342.534,-274.022 342.534,-274.022 342.534,-274.022 346.505,-277.059 339.8,-277.596 350.477,-280.097 350.477,-280.097"/>
</g>
<!-- User&#45;&gt;Relationship -->
<g id="edge6" class="edge"><title>User&#45;&gt;Relationship</title>
<path fill="none" stroke="#aa3b5e" d="M312.315,-419.994C290.828,-387.924 271.5,-352.338 260,-316 256.802,-305.895 256.37,-295.004 257.524,-284.342"/>
<ellipse fill="none" stroke="#aa3b5e" cx="314.682" cy="-423.475" rx="4.00002" ry="4.00002"/>
<polygon fill="#aa3b5e" stroke="#aa3b5e" points="257.561,-284.107 263.528,-274.906 258.32,-279.165 259.08,-274.223 259.08,-274.223 259.08,-274.223 258.32,-279.165 254.632,-273.539 257.561,-284.107 257.561,-284.107"/>
<text text-anchor="middle" x="317.5" y="-304.3" font-family="Times,serif" font-size="14.00">reverse_relationships</text>
</g>
<!-- PoliticalPartyLike -->
<g id="node8" class="node"><title>PoliticalPartyLike</title>
<path fill="none" stroke="black" d="M814,-160.5C814,-160.5 948,-160.5 948,-160.5 954,-160.5 960,-166.5 960,-172.5 960,-172.5 960,-269.5 960,-269.5 960,-275.5 954,-281.5 948,-281.5 948,-281.5 814,-281.5 814,-281.5 808,-281.5 802,-275.5 802,-269.5 802,-269.5 802,-172.5 802,-172.5 802,-166.5 808,-160.5 814,-160.5"/>
<text text-anchor="middle" x="881" y="-266.3" font-family="Times,serif" font-size="14.00">PoliticalPartyLike</text>
<polyline fill="none" stroke="black" points="802,-258.5 960,-258.5 "/>
<text text-anchor="start" x="810" y="-243.3" font-family="Times,serif" font-size="14.00">id :integer</text>
<text text-anchor="start" x="810" y="-228.3" font-family="Times,serif" font-size="14.00">user_id :integer</text>
<text text-anchor="start" x="810" y="-213.3" font-family="Times,serif" font-size="14.00">political_party_id :integer</text>
<text text-anchor="start" x="810" y="-198.3" font-family="Times,serif" font-size="14.00">value :boolean</text>
<text text-anchor="start" x="810" y="-183.3" font-family="Times,serif" font-size="14.00">created_at :datetime</text>
<text text-anchor="start" x="810" y="-168.3" font-family="Times,serif" font-size="14.00">updated_at :datetime</text>
</g>
<!-- User&#45;&gt;PoliticalPartyLike -->
<g id="edge3" class="edge"><title>User&#45;&gt;PoliticalPartyLike</title>
<path fill="none" stroke="#bb794a" d="M542.076,-467.813C620.443,-410.975 722.234,-337.149 793.731,-285.294"/>
<ellipse fill="none" stroke="#bb794a" cx="538.511" cy="-470.398" rx="4.00002" ry="4.00002"/>
<polygon fill="#bb794a" stroke="#bb794a" points="793.764,-285.27 804.502,-283.041 797.812,-282.334 801.86,-279.399 801.86,-279.399 801.86,-279.399 797.812,-282.334 799.218,-275.756 793.764,-285.27 793.764,-285.27"/>
</g>
<!-- PoliticianLikes -->
<g id="node9" class="node"><title>PoliticianLikes</title>
<ellipse fill="none" stroke="black" cx="426" cy="-221" rx="63.5411" ry="18"/>
<text text-anchor="middle" x="426" y="-217.3" font-family="Times,serif" font-size="14.00">PoliticianLikes</text>
</g>
<!-- User&#45;&gt;PoliticianLikes -->
<g id="edge10" class="edge"><title>User&#45;&gt;PoliticianLikes</title>
<path fill="none" stroke="#17d3c1" d="M426,-326.265C426,-295.673 426,-268.318 426,-249.311"/>
<ellipse fill="none" stroke="#17d3c1" cx="426" cy="-330.644" rx="4" ry="4"/>
<polygon fill="#17d3c1" stroke="#17d3c1" points="426,-249.123 430.5,-239.123 426,-244.123 426,-239.123 426,-239.123 426,-239.123 426,-244.123 421.5,-239.123 426,-249.123 426,-249.123"/>
<text text-anchor="middle" x="494" y="-304.3" font-family="Times,serif" font-size="14.00">politician_likes_received</text>
</g>
<!-- LikesReceived -->
<g id="node10" class="node"><title>LikesReceived</title>
<ellipse fill="none" stroke="black" cx="571" cy="-221" rx="63.0666" ry="18"/>
<text text-anchor="middle" x="571" y="-217.3" font-family="Times,serif" font-size="14.00">LikesReceived</text>
</g>
<!-- User&#45;&gt;LikesReceived -->
<g id="edge11" class="edge"><title>User&#45;&gt;LikesReceived</title>
<path fill="none" stroke="#d14a80" d="M539.472,-375.169C548.641,-355.727 556.759,-335.795 563,-316 569.866,-294.223 571.627,-268.287 571.806,-249.18"/>
<polygon fill="#d14a80" stroke="#d14a80" points="539.381,-375.358 530.986,-382.413 537.21,-379.863 535.04,-384.367 535.04,-384.367 535.04,-384.367 537.21,-379.863 539.094,-386.32 539.381,-375.358 539.381,-375.358"/>
<polygon fill="#d14a80" stroke="#d14a80" points="571.805,-249.071 576.26,-239.05 571.783,-244.071 571.76,-239.071 571.76,-239.071 571.76,-239.071 571.783,-244.071 567.26,-239.091 571.805,-249.071 571.805,-249.071"/>
</g>
<!-- Post&#45;&gt;PostLike -->
<g id="edge12" class="edge"><title>Post&#45;&gt;PostLike</title>
<path fill="none" stroke="#1a4feb" d="M105.49,-160.423C101.52,-150.772 97.38,-140.708 93.3281,-130.859"/>
<ellipse fill="none" stroke="#1a4feb" cx="107.015" cy="-164.128" rx="4.00002" ry="4.00002"/>
<polygon fill="#1a4feb" stroke="#1a4feb" points="93.2832,-130.75 93.6402,-119.79 91.3809,-126.126 89.4786,-121.502 89.4786,-121.502 89.4786,-121.502 91.3809,-126.126 85.317,-123.214 93.2832,-130.75 93.2832,-130.75"/>
</g>
<!-- PoliticalParty -->
<g id="node7" class="node"><title>PoliticalParty</title>
<path fill="none" stroke="black" d="M683.5,-811C683.5,-811 790.5,-811 790.5,-811 796.5,-811 802.5,-817 802.5,-823 802.5,-823 802.5,-935 802.5,-935 802.5,-941 796.5,-947 790.5,-947 790.5,-947 683.5,-947 683.5,-947 677.5,-947 671.5,-941 671.5,-935 671.5,-935 671.5,-823 671.5,-823 671.5,-817 677.5,-811 683.5,-811"/>
<text text-anchor="middle" x="737" y="-931.8" font-family="Times,serif" font-size="14.00">PoliticalParty</text>
<polyline fill="none" stroke="black" points="671.5,-924 802.5,-924 "/>
<text text-anchor="start" x="679.5" y="-908.8" font-family="Times,serif" font-size="14.00">id :integer</text>
<text text-anchor="start" x="679.5" y="-893.8" font-family="Times,serif" font-size="14.00">name :string</text>
<text text-anchor="start" x="679.5" y="-878.8" font-family="Times,serif" font-size="14.00">siglum :string</text>
<text text-anchor="start" x="679.5" y="-863.8" font-family="Times,serif" font-size="14.00">number :decimal</text>
<text text-anchor="start" x="679.5" y="-848.8" font-family="Times,serif" font-size="14.00">position :string</text>
<text text-anchor="start" x="679.5" y="-833.8" font-family="Times,serif" font-size="14.00">created_at :datetime</text>
<text text-anchor="start" x="679.5" y="-818.8" font-family="Times,serif" font-size="14.00">updated_at :datetime</text>
</g>
<!-- PoliticalParty&#45;&gt;User -->
<g id="edge13" class="edge"><title>PoliticalParty&#45;&gt;User</title>
<path fill="none" stroke="#03fbd6" d="M666.903,-804.972C630.083,-766.614 584.004,-718.608 542.032,-674.882"/>
<ellipse fill="none" stroke="#03fbd6" cx="669.791" cy="-807.981" rx="4.00002" ry="4.00002"/>
<polygon fill="#03fbd6" stroke="#03fbd6" points="541.988,-674.836 538.309,-664.506 538.525,-671.229 535.063,-667.622 535.063,-667.622 535.063,-667.622 538.525,-671.229 531.816,-670.738 541.988,-674.836 541.988,-674.836"/>
</g>
<!-- PoliticalParty&#45;&gt;PoliticalPartyLike -->
<g id="edge14" class="edge"><title>PoliticalParty&#45;&gt;PoliticalPartyLike</title>
<path fill="none" stroke="#d4fa65" d="M782.562,-803.794C787.686,-793.376 792.361,-782.602 796,-772 852.99,-605.95 871.901,-398.542 878.078,-292.135"/>
<ellipse fill="none" stroke="#d4fa65" cx="780.754" cy="-807.372" rx="4.00002" ry="4.00002"/>
<polygon fill="#d4fa65" stroke="#d4fa65" points="878.095,-291.831 883.147,-282.098 878.374,-286.839 878.654,-281.846 878.654,-281.846 878.654,-281.846 878.374,-286.839 874.161,-281.595 878.095,-291.831 878.095,-291.831"/>
</g>
</g>
</svg>
